<?xml version="1.0" encoding="UTF-8"?>
<svg xmlns="http://www.w3.org/2000/svg" viewBox="0 0 200 200">
  <defs>
    <style>
      .cls-1 {
        stroke-width: 2px;
      }

      .cls-1, .cls-2 {
        fill: none;
        stroke: #ccc;
        stroke-miterlimit: 10;
      }

      .cls-3 {
        font-size: 18px;
      }

      .cls-3, .cls-4, .cls-5 {
        fill: #ccc;
        font-family: Helvetica, Helvetica;
      }

      .cls-4 {
        font-size: 24px;
        letter-spacing: -.05em;
      }

      .cls-5 {
        font-size: 11px;
      }
    </style>
  </defs>
  <g id="background">
    <rect width="200" height="200"/>
  </g>
  <g id="artwork">
    <g>
      <g>
        <line class="cls-1" x1="67.5" y1="97" x2="82.5" y2="97"/>
        <line class="cls-1" x1="67.5" y1="103" x2="82.5" y2="103"/>
      </g>
      <line class="cls-1" x1="90" y1="100" x2="110" y2="100"/>
      <text class="cls-3" transform="translate(94.99 91.47)"><tspan x="0" y="0">1</tspan></text>
      <text class="cls-3" transform="translate(94.99 121.47)"><tspan x="0" y="0">n</tspan></text>
      <g>
        <text class="cls-3" transform="translate(151.37 106.47)"><tspan x="0" y="0">a</tspan></text>
        <text class="cls-5" transform="translate(164.94 110.45) scale(.97 1)"><tspan x="0" y="0">i</tspan></text>
      </g>
      <polyline class="cls-1" points="147.5 79 117.5 79 130.5 100 117.5 121 147.5 121"/>
      <text class="cls-5" transform="translate(129.53 75.45) scale(.97 1)"><tspan x="0" y="0">n</tspan></text>
      <g>
        <text class="cls-5" transform="translate(122.06 132.45) scale(.97 1)"><tspan x="0" y="0">i</tspan></text>
        <text class="cls-5" transform="translate(138.78 132.45) scale(.97 1)"><tspan x="0" y="0">0</tspan></text>
      </g>
      <g>
        <line class="cls-2" x1="129.25" y1="127.25" x2="135.75" y2="127.25"/>
        <line class="cls-2" x1="129.25" y1="129.75" x2="135.75" y2="129.75"/>
      </g>
      <text class="cls-4" transform="translate(42.49 108.63) scale(1.02 1)"><tspan x="0" y="0">A</tspan></text>
    </g>
  </g>
</svg>